<svg width="90" height="90" viewBox="0 0 90 90" fill="none" xmlns="http://www.w3.org/2000/svg">
<g clip-path="url(#clip0_31_1252)">
<path d="M88.1633 53.2652H78.9782V8.44893C78.9782 7.43449 78.1557 6.61219 77.1414 6.61219H65.5717V1.83674C65.5717 0.822305 64.7492 0 63.7349 0C62.7207 0 61.8982 0.822305 61.8982 1.83674V6.61219H50.3286C49.3144 6.61219 48.4919 7.43449 48.4919 8.44893V29.755H29.755V15.8036C29.755 14.7892 28.9325 13.9669 27.9183 13.9669H1.83674C0.822481 13.9669 0 14.7892 0 15.8036V88.1633C0 89.1777 0.822481 90 1.83674 90H88.1633C89.1775 90 90 89.1777 90 88.1633V55.102C90 54.0875 89.1775 53.2652 88.1633 53.2652ZM26.0817 31.5918V86.3265H3.67348V83.9387H13.7494C14.7637 83.9387 15.5862 83.1164 15.5862 82.102C15.5862 81.0875 14.7637 80.2652 13.7494 80.2652H3.67348V75.7016H13.7494C14.7637 75.7016 15.5862 74.8793 15.5862 73.8649C15.5862 72.8504 14.7637 72.0281 13.7494 72.0281H3.67348V67.4645H13.7494C14.7637 67.4645 15.5862 66.6422 15.5862 65.6278C15.5862 64.6133 14.7637 63.791 13.7494 63.791H3.67348V59.2277H13.7494C14.7637 59.2277 15.5862 58.4054 15.5862 57.391C15.5862 56.3766 14.7637 55.5543 13.7494 55.5543H3.67348V50.9906H13.7494C14.7637 50.9906 15.5862 50.1683 15.5862 49.1539C15.5862 48.1395 14.7637 47.3172 13.7494 47.3172H3.67348V42.7535H13.7494C14.7637 42.7535 15.5862 41.9312 15.5862 40.9168C15.5862 39.9023 14.7637 39.08 13.7494 39.08H3.67348V34.5166H13.7494C14.7637 34.5166 15.5862 33.6943 15.5862 32.6798C15.5862 31.6654 14.7637 30.8431 13.7494 30.8431H3.67348V26.2795H13.7494C14.7637 26.2795 15.5862 25.4572 15.5862 24.4427C15.5862 23.4283 14.7637 22.606 13.7494 22.606H3.67348V17.6402H26.0817V31.5918ZM52.1654 10.2857H75.3047V53.2652H61.347V31.5918C61.347 30.5773 60.5245 29.755 59.5102 29.755H52.1654V10.2857ZM48.8572 74.185H35.3053V72.7195H48.8572V74.185ZM48.8572 62.8182H35.2673V61.3528H48.8572V62.8182ZM48.8572 55.102V57.6791H33.4306C32.4163 57.6791 31.5939 58.5014 31.5939 59.5158V64.6548C31.5939 65.6692 32.4163 66.4915 33.4306 66.4915H48.8572V69.0456H33.4686C32.4543 69.0456 31.6318 69.868 31.6318 70.8824V76.0213C31.6318 77.0358 32.4543 77.8581 33.4686 77.8581H48.8572V86.3263H29.755V33.4285H57.6733V53.2652H50.6937C49.6796 53.2652 48.8572 54.0875 48.8572 55.102ZM64.8387 86.3265H59.51H58.586V80.0974H64.8385L64.8387 86.3265ZM82.0981 86.3265H75.8456V80.0974H82.0981V86.3265ZM86.3265 86.3265H85.7716V78.2606C85.7716 77.2462 84.9491 76.4239 83.9348 76.4239H74.0088C72.9946 76.4239 72.1721 77.2462 72.1721 78.2606V86.3265H68.512V78.2606C68.512 77.2462 67.6895 76.4239 66.6752 76.4239H56.7492C55.735 76.4239 54.9125 77.2462 54.9125 78.2606V86.3265H52.5306V56.9387H86.3265V86.3265Z" fill="#222222"/>
<path d="M66.6754 60.0728H56.7494C55.7351 60.0728 54.9127 60.8951 54.9127 61.9095V71.8431C54.9127 72.8575 55.7351 73.6798 56.7494 73.6798C57.7637 73.6798 58.5861 72.8575 58.5861 71.8431V63.7462H64.8387V65.7869C64.8387 66.8013 65.6612 67.6236 66.6754 67.6236C67.6897 67.6236 68.5122 66.8013 68.5122 65.7869V61.9095C68.5122 60.8951 67.6897 60.0728 66.6754 60.0728Z" fill="#222222"/>
<path d="M66.4573 69.9551C65.443 69.9551 64.6205 70.7774 64.6205 71.7918V71.8431C64.6205 72.8576 65.443 73.6799 66.4573 73.6799C67.4715 73.6799 68.294 72.8576 68.294 71.8431V71.7918C68.294 70.7774 67.4717 69.9551 66.4573 69.9551Z" fill="#222222"/>
<path d="M83.935 60.0728H74.009C72.9946 60.0728 72.1723 60.8951 72.1723 61.9095V71.8431C72.1723 72.8575 72.9948 73.6798 74.009 73.6798C75.0233 73.6798 75.8458 72.8575 75.8458 71.8431V63.7462H82.0983V65.7869C82.0983 66.8013 82.9208 67.6236 83.935 67.6236C84.9493 67.6236 85.7718 66.8013 85.7718 65.7869V61.9095C85.7718 60.8951 84.9493 60.0728 83.935 60.0728Z" fill="#222222"/>
<path d="M83.7169 69.9551C82.7026 69.9551 81.8801 70.7774 81.8801 71.7918V71.8431C81.8801 72.8576 82.7026 73.6799 83.7169 73.6799C84.7311 73.6799 85.5536 72.8576 85.5536 71.8431V71.7918C85.5536 70.7774 84.7311 69.9551 83.7169 69.9551Z" fill="#222222"/>
<path d="M57.3063 15.522C56.292 15.522 55.4695 16.3443 55.4695 17.3588V20.2975C55.4695 21.3119 56.292 22.1342 57.3063 22.1342C58.3205 22.1342 59.143 21.3119 59.143 20.2975V17.3588C59.143 16.3443 58.3205 15.522 57.3063 15.522Z" fill="#222222"/>
<path d="M63.7349 15.522C62.7207 15.522 61.8982 16.3443 61.8982 17.3588V20.2975C61.8982 21.3119 62.7207 22.1342 63.7349 22.1342C64.7492 22.1342 65.5717 21.3119 65.5717 20.2975V17.3588C65.5717 16.3443 64.7492 15.522 63.7349 15.522Z" fill="#222222"/>
<path d="M70.1634 15.522C69.1492 15.522 68.3267 16.3443 68.3267 17.3588V20.2975C68.3267 21.3119 69.1492 22.1342 70.1634 22.1342C71.1777 22.1342 72.0002 21.3119 72.0002 20.2975V17.3588C72.0002 16.3443 71.1777 15.522 70.1634 15.522Z" fill="#222222"/>
<path d="M70.1634 26.8163C69.1492 26.8163 68.3267 27.6386 68.3267 28.653V31.5917C68.3267 32.6062 69.1492 33.4285 70.1634 33.4285C71.1777 33.4285 72.0002 32.6062 72.0002 31.5917V28.653C72.0002 27.6386 71.1777 26.8163 70.1634 26.8163Z" fill="#222222"/>
<path d="M70.1634 38.3878C69.1492 38.3878 68.3267 39.2101 68.3267 40.2246V43.1633C68.3267 44.1777 69.1492 45 70.1634 45C71.1777 45 72.0002 44.1777 72.0002 43.1633V40.2246C72.0002 39.2101 71.1777 38.3878 70.1634 38.3878Z" fill="#222222"/>
<path d="M53.9982 34.7182H33.4306C32.4164 34.7182 31.5939 35.5405 31.5939 36.5549V41.6939C31.5939 42.7083 32.4162 43.5306 33.4306 43.5306H53.9982C55.0125 43.5306 55.835 42.7083 55.835 41.6939V36.5549C55.835 35.5405 55.0123 34.7182 53.9982 34.7182ZM52.1615 39.8572H35.2674V38.3917H52.1615V39.8572Z" fill="#222222"/>
<path d="M53.9982 46.1481H33.4306C32.4164 46.1481 31.5939 46.9704 31.5939 47.9848V53.1238C31.5939 54.1382 32.4162 54.9605 33.4306 54.9605H44.3264C45.3407 54.9605 46.1631 54.1382 46.1631 53.1238C46.1631 52.1093 45.3407 51.287 44.3264 51.287H35.2674V49.8215H52.1615V49.9899C52.1615 51.0044 52.984 51.8267 53.9982 51.8267C55.0125 51.8267 55.835 51.0044 55.835 49.9899V47.9848C55.835 46.9704 55.0125 46.1481 53.9982 46.1481Z" fill="#222222"/>
</g>
<defs>
<clipPath id="clip0_31_1252">
<rect width="90" height="90" fill="white"/>
</clipPath>
</defs>
</svg>
