<svg width="90" height="90" viewBox="0 0 90 90" fill="none" xmlns="http://www.w3.org/2000/svg">
<path d="M45 49.2C53.2843 49.2 60 42.4842 60 34.2C60 25.9157 53.2843 19.2 45 19.2C36.7157 19.2 30 25.9157 30 34.2C30 42.4842 36.7157 49.2 45 49.2ZM45 49.2C32.5736 49.2 22.5 59.2735 22.5 71.7V82.95M45 49.2C57.4264 49.2 67.5 59.2735 67.5 71.7V82.95M48.75 19.2C50.264 12.9587 56.3068 7.94995 63.75 7.94995C71.8958 7.94995 78.677 14.6657 78.75 22.95C78.677 31.2342 71.8958 37.95 63.75 37.95M63.75 37.95H60M63.75 37.95C76.0783 37.95 86.25 48.0235 86.25 60.45V67.95M41.25 19.2C39.736 12.9587 33.6932 7.94995 26.25 7.94995C18.1042 7.94995 11.3231 14.6657 11.25 22.95C11.3231 31.2342 18.1042 37.95 26.25 37.95M26.25 37.95H30M26.25 37.95C13.9217 37.95 3.75 48.0235 3.75 60.45V67.95" stroke="#222222" stroke-width="5"/>
</svg>
