<svg width="50" height="50" viewBox="0 0 50 50" fill="none" xmlns="http://www.w3.org/2000/svg">
<path d="M15.9762 19.0476V18.5476H15.4762H8.33333H7.83333V19.0476V41.6667V42.1667H8.33333H15.4762H15.9762V41.6667V19.0476ZM15.9762 12.4643V12.4518L15.9756 12.4393C15.9272 11.4726 15.5098 10.6079 14.7882 9.98942C14.0688 9.37282 13.0755 9.02381 11.9048 9.02381C9.56928 9.02381 7.83333 10.4448 7.83333 12.4643C7.83333 14.4695 9.5526 15.9762 11.9048 15.9762C13.1239 15.9762 14.1418 15.6086 14.8618 14.969C15.5842 14.3273 15.9762 13.4371 15.9762 12.4643ZM41.6667 42.1667H42.1667V41.6667V28.881C42.1667 25.492 41.1783 22.9001 39.5222 21.1517C37.8654 19.4026 35.587 18.5476 33.1071 18.5476C30.6817 18.5476 28.8581 19.3491 27.6408 20.1544C27.2671 20.4016 26.9504 20.6492 26.6905 20.8742V19.0476V18.5476H26.1905H19.0476H18.5476V19.0476V41.6667V42.1667H19.0476H26.1905H26.6905V41.6667H26.1905C26.6905 41.6667 26.6905 41.6666 26.6905 41.6665V41.6662V41.6656V41.6647V41.6636V41.6622V41.6607V41.6588V41.6567V41.6544V41.6519V41.6491V41.6461V41.6428V41.6393V41.6356V41.6316V41.6274V41.623V41.6184V41.6135V41.6084V41.603V41.5975V41.5917V41.5856V41.5794V41.5729V41.5663V41.5593V41.5522V41.5449V41.5373V41.5295V41.5215V41.5133V41.5049V41.4962V41.4874V41.4783V41.469V41.4596V41.4499V41.44V41.4298V41.4195V41.409V41.3983V41.3873V41.3762V41.3649V41.3533V41.3416V41.3297V41.3175V41.3052V41.2927V41.28V41.267V41.2539V41.2406V41.2271V41.2134V41.1996V41.1855V41.1713V41.1568V41.1422V41.1274V41.1124V41.0972V41.0818V41.0663V41.0506V41.0347V41.0186V41.0023V40.9859V40.9693V40.9525V40.9356V40.9184V40.9011V40.8836V40.866V40.8482V40.8302V40.812V40.7937V40.7752V40.7566V40.7378V40.7188V40.6996V40.6803V40.6609V40.6412V40.6215V40.6015V40.5814V40.5612V40.5408V40.5202V40.4995V40.4786V40.4576V40.4365V40.4151V40.3937V40.3721V40.3503V40.3284V40.3064V40.2842V40.2618V40.2394V40.2167V40.194V40.1711V40.148V40.1249V40.1016V40.0781V40.0545V40.0308V40.007V39.983V39.9589V39.9347V39.9103V39.8858V39.8612V39.8364V39.8115V39.7865V39.7614V39.7362V39.7108V39.6853V39.6597V39.634V39.6081V39.5822V39.5561V39.5299V39.5036V39.4772V39.4506V39.424V39.3972V39.3704V39.3434V39.3163V39.2891V39.2618V39.2344V39.2069V39.1793V39.1516V39.1238V39.0958V39.0678V39.0397V39.0115V38.9832V38.9548V38.9263V38.8977V38.869V38.8402V38.8114V38.7824V38.7533V38.7242V38.695V38.6657V38.6363V38.6068V38.5772V38.5476V38.5178V38.488V38.4581V38.4281V38.3981V38.3679V38.3377V38.3074V38.2771V38.2467V38.2161V38.1856V38.1549V38.1242V38.0934V38.0626V38.0316V38.0006V37.9696V37.9385V37.9073V37.876V37.8447V37.8133V37.7819V37.7504V37.7189V37.6872V37.6556V37.6239V37.5921V37.5603V37.5284V37.4964V37.4645V37.4324V37.4003V37.3682V37.336V37.3038V37.2715V37.2392V37.2069V37.1745V37.142V37.1095V37.077V37.0444V37.0118V36.9792V36.9465V36.9138V36.8811V36.8483V36.8155V36.7826V36.7498V36.7169V36.6839V36.651V36.618V36.585V36.5519V36.5189V36.4858V36.4527V36.4195V36.3864V36.3532V36.32V36.2868V36.2536V36.2203V36.1871V36.1538V36.1205V36.0872V36.0539V36.0206V35.9873V35.9539V35.9206V35.8873V35.8539V35.8205V35.7872V35.7538V35.7204V35.687V35.6537V35.6203V35.5869V35.5536V35.5202V35.4868V35.4535V35.4201V35.3868V35.3534V35.3201V35.2868V35.2535V35.2202V35.1869V35.1536V35.1204V35.0871V35.0539V35.0207V34.9875V34.9543V34.9212V34.8881V34.855V34.8219V34.7888V34.7558V34.7228V34.6898V34.6568V34.6239V34.591V34.5581V34.5253V34.4924V34.4597V34.4269V34.3942V34.3615V34.3289V34.2963V34.2637V34.2312V34.1987V34.1663V34.1339V34.1015V34.0692V34.0369V34.0047V33.9725V33.9404V33.9083V33.8763V33.8443V33.8124V33.7805V33.7487V33.7169V33.6852V33.6535V33.6219V33.5904V33.5589V33.5274V33.4961V33.4648V33.4335V33.4023V33.3712V33.3401V33.3092V33.2782V33.2474V33.2166V33.1859V33.1552V33.1246V33.0941V33.0637V33.0333V33.0031V32.9729V32.9427V32.9127V32.8827V32.8528V32.823V32.7933V32.7636V32.734V32.7046V32.6752V32.6458V32.6166V32.5875V32.5584V32.5295V32.5006V32.4718V32.4431V32.4145V32.386V32.3576V32.3293V32.3011V32.273V32.245V32.2171V32.1893V32.1616V32.134V32.1065V32.0791V32.0518V32.0246V31.9975V31.9705V31.9436V31.9169V31.8902V31.8637V31.8373V31.811V31.7848V31.7587V31.7328V31.7069V31.6812V31.6556V31.6301V31.6047V31.5795V31.5544V31.5294V31.5045V31.4797V31.4551V31.4306V31.4063V31.382V31.3579V31.334V31.3101V31.2864V31.2628V31.2394V31.2161V31.1929V31.1699V31.147V31.1242V31.1016V31.0791V31.0568V31.0346V31.0126V30.9907V30.9689V30.9473V30.9258V30.9045V30.8834V30.8624V30.8415V30.8208V30.8002V30.7798V30.7596V30.7395V30.7196V30.6998V30.6802V30.6607V30.6414V30.6223V30.6033V30.5845V30.5658V30.5473V30.529V30.5109V30.4929V30.4751V30.4574V30.44V30.4227V30.4055V30.3886V30.3718V30.3552V30.3387V30.3225V30.3064V30.2905V30.2748V30.2593V30.2439V30.2287V30.2137V30.1989V30.1843V30.1699V30.1556V30.1416V30.1277V30.114V30.1005V30.0872V30.0741V30.0612V30.0485V30.036V30.0236V30.0115V29.9996V29.9879V29.9763V29.965V29.9539V29.9429V29.9322V29.9217V29.9114V29.9013V29.8914V29.8817V29.8722V29.8629V29.8539V29.845V29.8364V29.8279V29.8197V29.8117V29.804V29.7964V29.7891V29.7819V29.775V29.7684V29.7619C26.6905 28.6578 26.9708 27.567 27.5507 26.7666C28.1165 25.9858 28.9852 25.4524 30.2619 25.4524H30.3531C31.6888 25.4748 32.5821 26.0111 33.1556 26.7809C33.7435 27.57 34.0238 28.6458 34.0238 29.7619V29.7672V29.7727V29.7784V29.7844V29.7906V29.797V29.8037V29.8105V29.8176V29.825V29.8325V29.8403V29.8483V29.8565V29.8649V29.8736V29.8824V29.8915V29.9008V29.9103V29.92V29.93V29.9401V29.9505V29.961V29.9718V29.9828V29.994V30.0054V30.017V30.0288V30.0408V30.053V30.0654V30.078V30.0908V30.1038V30.117V30.1304V30.144V30.1578V30.1718V30.1859V30.2003V30.2149V30.2296V30.2445V30.2597V30.275V30.2905V30.3062V30.322V30.3381V30.3543V30.3707V30.3873V30.4041V30.421V30.4381V30.4554V30.4729V30.4905V30.5084V30.5264V30.5445V30.5629V30.5814V30.6001V30.6189V30.6379V30.6571V30.6764V30.6959V30.7156V30.7354V30.7554V30.7756V30.7959V30.8164V30.837V30.8578V30.8787V30.8998V30.9211V30.9425V30.964V30.9857V31.0076V31.0296V31.0517V31.074V31.0965V31.119V31.1418V31.1646V31.1877V31.2108V31.2341V31.2576V31.2811V31.3049V31.3287V31.3527V31.3768V31.4011V31.4255V31.45V31.4746V31.4994V31.5243V31.5494V31.5745V31.5998V31.6252V31.6508V31.6764V31.7022V31.7281V31.7542V31.7803V31.8066V31.833V31.8595V31.8861V31.9128V31.9396V31.9666V31.9937V32.0209V32.0481V32.0755V32.1031V32.1307V32.1584V32.1862V32.2142V32.2422V32.2703V32.2986V32.3269V32.3553V32.3839V32.4125V32.4413V32.4701V32.499V32.528V32.5571V32.5863V32.6156V32.645V32.6745V32.7041V32.7337V32.7634V32.7933V32.8232V32.8532V32.8832V32.9134V32.9436V32.9739V33.0043V33.0348V33.0653V33.096V33.1267V33.1574V33.1883V33.2192V33.2502V33.2813V33.3124V33.3436V33.3749V33.4062V33.4376V33.469V33.5006V33.5322V33.5638V33.5955V33.6273V33.6591V33.691V33.723V33.755V33.787V33.8191V33.8513V33.8835V33.9158V33.9481V33.9805V34.0129V34.0454V34.0779V34.1104V34.143V34.1757V34.2084V34.2411V34.2739V34.3067V34.3395V34.3724V34.4053V34.4383V34.4713V34.5043V34.5374V34.5705V34.6036V34.6368V34.67V34.7032V34.7364V34.7697V34.803V34.8363V34.8697V34.9031V34.9365V34.9699V35.0033V35.0368V35.0702V35.1037V35.1372V35.1707V35.2043V35.2378V35.2714V35.305V35.3386V35.3722V35.4058V35.4394V35.473V35.5066V35.5402V35.5739V35.6075V35.6411V35.6748V35.7084V35.7421V35.7757V35.8093V35.843V35.8766V35.9102V35.9438V35.9775V36.0111V36.0446V36.0782V36.1118V36.1454V36.1789V36.2124V36.2459V36.2794V36.3129V36.3464V36.3798V36.4133V36.4467V36.4801V36.5134V36.5468V36.5801V36.6134V36.6467V36.6799V36.7131V36.7463V36.7794V36.8126V36.8456V36.8787V36.9117V36.9447V36.9777V37.0106V37.0435V37.0763V37.1091V37.1418V37.1746V37.2072V37.2399V37.2725V37.305V37.3375V37.37V37.4024V37.4347V37.467V37.4993V37.5315V37.5636V37.5957V37.6278V37.6597V37.6917V37.7235V37.7554V37.7871V37.8188V37.8504V37.882V37.9135V37.945V37.9763V38.0076V38.0389V38.0701V38.1012V38.1322V38.1632V38.1941V38.2249V38.2556V38.2863V38.3169V38.3475V38.3779V38.4083V38.4386V38.4688V38.4989V38.5289V38.5589V38.5888V38.6186V38.6483V38.6779V38.7074V38.7369V38.7663V38.7955V38.8247V38.8538V38.8828V38.9117V38.9405V38.9692V38.9978V39.0263V39.0547V39.083V39.1112V39.1393V39.1673V39.1952V39.223V39.2507V39.2783V39.3058V39.3331V39.3604V39.3875V39.4146V39.4415V39.4683V39.495V39.5216V39.548V39.5744V39.6006V39.6267V39.6527V39.6786V39.7043V39.73V39.7555V39.7808V39.8061V39.8312V39.8562V39.8811V39.9058V39.9304V39.9549V39.9793V40.0035V40.0276V40.0515V40.0753V40.099V40.1225V40.1459V40.1692V40.1923V40.2153V40.2381V40.2608V40.2833V40.3057V40.328V40.3501V40.372V40.3938V40.4155V40.437V40.4583V40.4795V40.5006V40.5215V40.5422V40.5628V40.5832V40.6035V40.6236V40.6435V40.6633V40.6829V40.7024V40.7217V40.7408V40.7598V40.7785V40.7972V40.8156V40.8339V40.852V40.87V40.8877V40.9053V40.9228V40.94V40.9571V40.974V40.9907V41.0072V41.0236V41.0397V41.0557V41.0715V41.0872V41.1026V41.1178V41.1329V41.1478V41.1625V41.177V41.1913V41.2054V41.2193V41.233V41.2466V41.2599V41.273V41.286V41.2987V41.3113V41.3236V41.3358V41.3477V41.3595V41.371V41.3823V41.3934V41.4044V41.4151V41.4256V41.4359V41.4459V41.4558V41.4655V41.4749V41.4841V41.4931V41.5019V41.5105V41.5189V41.527V41.535V41.5427V41.5501V41.5574V41.5644V41.5712V41.5778V41.5842V41.5903V41.5962V41.6018V41.6073V41.6125V41.6175V41.6222V41.6267V41.631V41.635V41.6388V41.6424V41.6457V41.6488V41.6516V41.6542V41.6566V41.6587V41.6605V41.6622V41.6635V41.6647V41.6655V41.6662V41.6665C34.0238 41.6666 34.0238 41.6667 34.5238 41.6667H34.0238V42.1667H34.5238H41.6667ZM5.95238 0.5H44.0476C47.0572 0.5 49.5 2.94281 49.5 5.95238V44.0476C49.5 47.0572 47.0572 49.5 44.0476 49.5H5.95238C2.94281 49.5 0.5 47.0572 0.5 44.0476V5.95238C0.5 2.94281 2.94281 0.5 5.95238 0.5Z" fill="white" stroke="#A7BEC7"/>
</svg>
