<svg width="80" height="80" viewBox="0 0 80 80" fill="none" xmlns="http://www.w3.org/2000/svg">
<path opacity="0.5" d="M40 73.3333C24.2867 73.3333 16.43 73.3333 11.5467 68.45C6.66669 63.5733 6.66669 55.7133 6.66669 40C6.66669 24.2867 6.66669 16.43 11.5467 11.5467C16.4334 6.66666 24.2867 6.66666 40 6.66666C55.7134 6.66666 63.57 6.66666 68.45 11.5467C73.3334 16.4333 73.3334 24.2867 73.3334 40C73.3334 55.7133 73.3334 63.57 68.45 68.45C63.5734 73.3333 55.7134 73.3333 40 73.3333Z" fill="white"/>
<path d="M62.5 26.6667C62.5 27.3297 62.2366 27.9656 61.7678 28.4344C61.2989 28.9033 60.663 29.1667 60 29.1667H20C19.337 29.1667 18.7011 28.9033 18.2322 28.4344C17.7634 27.9656 17.5 27.3297 17.5 26.6667C17.5 26.0036 17.7634 25.3677 18.2322 24.8989C18.7011 24.43 19.337 24.1667 20 24.1667H60C60.663 24.1667 61.2989 24.43 61.7678 24.8989C62.2366 25.3677 62.5 26.0036 62.5 26.6667ZM62.5 40C62.5 40.663 62.2366 41.2989 61.7678 41.7678C61.2989 42.2366 60.663 42.5 60 42.5H20C19.337 42.5 18.7011 42.2366 18.2322 41.7678C17.7634 41.2989 17.5 40.663 17.5 40C17.5 39.3369 17.7634 38.7011 18.2322 38.2322C18.7011 37.7634 19.337 37.5 20 37.5H60C60.663 37.5 61.2989 37.7634 61.7678 38.2322C62.2366 38.7011 62.5 39.3369 62.5 40ZM62.5 53.3333C62.5 53.9964 62.2366 54.6323 61.7678 55.1011C61.2989 55.5699 60.663 55.8333 60 55.8333H20C19.337 55.8333 18.7011 55.5699 18.2322 55.1011C17.7634 54.6323 17.5 53.9964 17.5 53.3333C17.5 52.6703 17.7634 52.0344 18.2322 51.5656C18.7011 51.0967 19.337 50.8333 20 50.8333H60C60.663 50.8333 61.2989 51.0967 61.7678 51.5656C62.2366 52.0344 62.5 52.6703 62.5 53.3333Z" fill="white"/>
</svg>
