<svg width="80" height="80" viewBox="0 0 80 80" fill="none" xmlns="http://www.w3.org/2000/svg">
<path d="M75.3187 34.5604C77.5132 33.0838 80 31.4105 80 29.0664C80 26.7222 77.5132 25.0487 75.3187 23.5721C74.0771 22.7367 72.6697 21.7898 72.3692 21.087C72.0391 20.3166 72.4513 18.872 72.8155 17.5974C73.4234 15.4672 74.1126 13.0523 72.3605 11.2263C70.5925 9.38343 67.3333 9.13639 64.4579 8.91859C62.7616 8.79008 60.8398 8.64458 60 8.18087C59.1814 7.72917 58.4164 6.40037 57.7415 5.22795C56.5758 3.20426 55.2553 0.910647 52.3623 0.198312C51.8282 0.0668594 51.2611 0 50.6765 0C48.467 0 46.3629 0.930365 44.3282 1.83036C42.8198 2.49714 41.1107 3.25299 40 3.25299C38.8884 3.25299 37.1796 2.49714 35.6712 1.83036C33.6365 0.930365 31.5324 0 29.3226 0C28.7374 0 28.1703 0.0668594 27.6365 0.198312C24.744 0.910874 23.4236 3.20449 22.2585 5.22772C21.5833 6.40014 20.818 7.72894 20 8.18064C19.1596 8.64435 17.2378 8.78985 15.5421 8.91836C12.6661 9.13616 9.40684 9.3832 7.63947 11.226C5.88734 13.0523 6.57625 15.4669 7.18509 17.5972C7.54866 18.8718 7.96122 20.3164 7.63141 21.0868C7.33027 21.7894 5.92349 22.7363 4.68191 23.5717C2.48734 25.0485 0 26.722 0 29.0661C0 31.4105 2.48734 33.0843 4.68191 34.5606C5.92349 35.396 7.33087 36.3427 7.63141 37.0448C7.96122 37.8157 7.54866 39.2605 7.18509 40.5351C6.57655 42.6653 5.88734 45.0802 7.63918 46.9063C9.40535 48.747 12.6596 48.9954 15.5326 49.213L3.89383 77.6675C3.63362 78.303 3.88636 78.9949 4.54031 79.4384C5.19396 79.882 6.12903 79.9951 6.93265 79.7281L18.9765 75.7265L25.9193 84.1977C26.3313 84.7008 27.0542 85 27.8214 85C27.9158 85 28.0117 84.9957 28.1073 84.9862C28.9772 84.9016 29.702 84.4395 29.9616 83.804L40 59.2635L50.0378 83.804C50.298 84.4395 51.0227 84.9016 51.8927 84.9862C51.9883 84.9957 52.0836 85 52.1786 85C52.9458 85 53.6681 84.7006 54.0807 84.1977L61.0229 75.7265L73.067 79.7281C73.8695 79.9951 74.8051 79.8824 75.4588 79.4384C76.1127 78.9949 76.3655 78.3027 76.1059 77.6675L64.4671 49.2137C67.3407 48.9959 70.5943 48.7475 72.3605 46.9067C74.1126 45.0804 73.4237 42.6658 72.8155 40.5354C72.4513 39.2607 72.0388 37.8159 72.3692 37.0453C72.6697 36.3425 74.0771 35.3958 75.3187 34.5604ZM27.1352 79.2433L21.7578 72.6816C21.1696 71.9638 19.9758 71.6832 18.9559 72.022L9.62702 75.1216L19.9349 49.9204C19.9558 49.9312 19.9791 49.9412 19.9997 49.9523C20.8177 50.404 21.5833 51.7326 22.2582 52.905C23.4233 54.9285 24.7443 57.2221 27.6368 57.9342C28.1706 58.0659 28.7386 58.1325 29.3232 58.1325C31.5327 58.1325 33.6368 57.2019 35.6715 56.3026C36.0082 56.1537 36.3547 56.0007 36.7031 55.8523L27.1352 79.2433ZM61.0432 72.0218C60.0239 71.6832 58.8301 71.9642 58.2419 72.6813L52.8639 79.2431L43.2966 55.8516C43.6444 55.9998 43.9915 56.153 44.3282 56.3019C46.3629 57.2019 48.467 58.1321 50.6765 58.1321C51.2617 58.1321 51.8288 58.0654 52.3629 57.934C55.2553 57.2214 56.5764 54.9278 57.7415 52.9046C58.4167 51.7321 59.182 50.4036 60 49.9519C60.0197 49.9408 60.0433 49.9308 60.0648 49.9201L70.3727 75.1211L61.0432 72.0218ZM68.1067 35.9953C67.4035 37.6384 67.9281 39.4767 68.4353 41.2545C68.8246 42.6164 69.3083 44.3112 68.7377 44.9061C68.1506 45.5178 65.856 45.6917 64.0127 45.8313C61.6398 46.011 59.1856 46.1966 57.3633 47.2032C55.5622 48.1974 54.5823 49.8986 53.6353 51.5434C52.8866 52.8427 51.9554 54.46 50.9785 54.7007C50.891 54.7222 50.7924 54.7327 50.6762 54.7327C49.6772 54.7327 48.0341 54.006 46.5843 53.3651C44.4883 52.4384 42.3212 51.4801 39.9997 51.4801C37.6776 51.4801 35.5105 52.4386 33.4145 53.3651C31.965 54.006 30.3219 54.7327 29.3232 54.7327C29.207 54.7327 29.1084 54.7222 29.0209 54.7005C28.044 54.46 27.1128 52.8429 26.3641 51.5434C25.4171 49.8984 24.4375 48.1972 22.6361 47.2032C20.8132 46.1966 18.3593 46.0108 15.9855 45.8311C14.1422 45.6915 11.8485 45.5176 11.2614 44.9061C10.6908 44.3112 11.1745 42.6166 11.5632 41.2549C12.0707 39.4772 12.5959 37.6389 11.8924 35.995C11.2154 34.4131 9.40505 33.1951 7.65441 32.0175C6.16637 31.0162 4.48026 29.8816 4.48026 29.0664C4.48026 28.2511 6.16637 27.1163 7.65441 26.1153C9.40475 24.9374 11.2154 23.7192 11.893 22.1368C12.5959 20.4934 12.071 18.6553 11.5638 16.8776C11.1745 15.5157 10.6908 13.8213 11.2614 13.2264C11.8485 12.6147 14.1428 12.4408 15.9864 12.3012C18.3593 12.1215 20.8129 11.9359 22.6358 10.9296C24.4369 9.93485 25.4168 8.23367 26.3638 6.58871C27.1125 5.28937 28.0437 3.67228 29.02 3.43158C29.1075 3.41028 29.2067 3.39963 29.3226 3.39963C30.3216 3.39963 31.9647 4.12647 33.4145 4.76741C35.5105 5.69438 37.6776 6.65262 39.9997 6.65262C42.3212 6.65262 44.4883 5.69415 46.5843 4.76741C48.0344 4.12647 49.6775 3.39963 50.6765 3.39963C50.7927 3.39963 50.8913 3.41028 50.9782 3.43181C51.9551 3.67228 52.8863 5.28937 53.635 6.58916C54.5826 8.23435 55.5622 9.93553 57.3633 10.9298C59.1856 11.9359 61.6395 12.1217 64.0127 12.3014C65.856 12.4411 68.1509 12.6149 68.7377 13.2266C69.3083 13.8215 68.8246 15.5164 68.4353 16.8778C67.9284 18.6556 67.4038 20.4939 68.1067 22.1368C68.7837 23.7192 70.594 24.9374 72.3453 26.1157C73.8327 27.1166 75.5188 28.2514 75.5188 29.0666C75.5188 29.8818 73.8324 31.0164 72.3453 32.0172C70.5943 33.1949 68.7837 34.4131 68.1067 35.9953Z" fill="#222222"/>
<path d="M39.9998 9.8009C25.9973 9.8009 14.6053 18.4434 14.6053 29.0664C14.6053 39.6893 25.9973 48.3318 39.9998 48.3318C54.0022 48.3318 65.3942 39.6893 65.3942 29.0664C65.3942 18.4434 54.0025 9.8009 39.9998 9.8009ZM39.9998 44.9322C28.4677 44.9322 19.0865 37.815 19.0865 29.0664C19.0865 20.3178 28.4677 13.2005 39.9998 13.2005C51.5313 13.2005 60.913 20.3178 60.913 29.0664C60.913 37.815 51.5313 44.9322 39.9998 44.9322Z" fill="#222222"/>
<path d="M39.9996 15.6804C30.2707 15.6804 22.3549 21.6853 22.3549 29.0666C22.3549 30.0055 23.3578 30.7664 24.5955 30.7664C25.8332 30.7664 26.8361 30.0055 26.8361 29.0666C26.8361 23.5601 32.741 19.08 39.9996 19.08C41.2373 19.08 42.2402 18.3192 42.2402 17.3802C42.2402 16.4413 41.2373 15.6804 39.9996 15.6804Z" fill="#222222"/>
</svg>
