<svg width="79" height="108" viewBox="0 0 79 108" fill="none" xmlns="http://www.w3.org/2000/svg">
<path d="M74.3772 43.912C76.5443 42.0359 79 39.9098 79 36.9314C79 33.9529 76.5443 31.8266 74.3772 29.9505C73.1511 28.889 71.7614 27.6859 71.4646 26.7929C71.1386 25.8141 71.5457 23.9786 71.9053 22.359C72.5057 19.6524 73.1862 16.5841 71.456 14.2639C69.7101 11.9225 66.4916 11.6086 63.6521 11.3318C61.9771 11.1686 60.0793 10.9837 59.25 10.3945C58.4417 9.82059 57.6862 8.13223 57.0197 6.64257C55.8686 4.0713 54.5647 1.15706 51.7078 0.251972C51.1803 0.0849507 50.6204 0 50.043 0C47.8612 0 45.7834 1.18211 43.7741 2.32563C42.2846 3.17284 40.5968 4.13321 39.5 4.13321C38.4023 4.13321 36.7148 3.17284 35.2253 2.32563C33.216 1.18211 31.1382 0 28.9561 0C28.3781 0 27.8182 0.0849507 27.291 0.251972C24.4347 1.15735 23.1308 4.07159 21.9803 6.64228C21.3135 8.13194 20.5577 9.8203 19.75 10.3942C18.9201 10.9834 17.0223 11.1683 15.3479 11.3316C12.5078 11.6083 9.28926 11.9222 7.54398 14.2637C5.81375 16.5841 6.49404 19.6521 7.09527 22.3587C7.4543 23.9783 7.86171 25.8138 7.53602 26.7926C7.23865 27.6853 5.84945 28.8884 4.62339 29.9499C2.45625 31.8263 0 33.9526 0 36.9311C0 39.9098 2.45625 42.0365 4.62339 43.9123C5.84945 44.9738 7.23924 46.1766 7.53602 47.0687C7.86171 48.0481 7.4543 49.8839 7.09527 51.5035C6.49434 54.2101 5.81375 57.2784 7.54369 59.5985C9.28778 61.9374 12.5013 62.253 15.3384 62.5295L3.84515 98.6834C3.5882 99.4908 3.83778 100.37 4.48355 100.934C5.12903 101.497 6.05241 101.641 6.84599 101.302L18.7393 96.2172L25.5953 106.981C26.0021 107.62 26.7161 108 27.4736 108C27.5669 108 27.6616 107.995 27.756 107.982C28.615 107.875 29.3307 107.288 29.5871 106.48L39.5 75.2994L49.4123 106.48C49.6693 107.288 50.385 107.875 51.244 107.982C51.3384 107.995 51.4325 108 51.5264 108C52.2839 108 52.9973 107.62 53.4047 106.981L60.2601 96.2172L72.1537 101.302C72.9461 101.641 73.8701 101.498 74.5156 100.934C75.1613 100.37 75.4109 99.4905 75.1545 98.6834L63.6613 62.5303C66.499 62.2536 69.7119 61.938 71.456 59.5991C73.1862 57.2787 72.506 54.2107 71.9053 51.5037C71.5457 49.8842 71.1383 48.0484 71.4646 47.0693C71.7614 46.1763 73.1511 44.9735 74.3772 43.912ZM26.796 100.686L21.4858 92.3483C20.905 91.4363 19.7261 91.0798 18.7189 91.5103L9.50668 95.4486L19.6857 63.4282C19.7063 63.4421 19.7293 63.4547 19.7497 63.4688C20.5574 64.0428 21.3135 65.7308 21.98 67.2205C23.1305 69.7915 24.435 72.7057 27.2913 73.6105C27.8185 73.7778 28.3793 73.8625 28.9567 73.8625C31.1385 73.8625 33.2163 72.6801 35.2256 71.5374C35.5581 71.3482 35.9003 71.1539 36.2443 70.9652L26.796 100.686ZM60.2802 91.5101C59.2736 91.0798 58.0947 91.4369 57.5139 92.348L52.2031 100.685L42.7554 70.9644C43.0988 71.1527 43.4416 71.3474 43.7741 71.5366C45.7834 72.6801 47.8612 73.8619 50.043 73.8619C50.621 73.8619 51.1809 73.7772 51.7084 73.6102C54.5647 72.7049 55.8692 69.7906 57.0197 67.2199C57.6864 65.7303 58.4423 64.0422 59.25 63.4683C59.2695 63.4541 59.2928 63.4415 59.314 63.4279L69.493 95.448L60.2802 91.5101ZM67.2554 45.7352C66.5609 47.8229 67.079 50.1586 67.5799 52.4175C67.9643 54.1479 68.4419 56.3013 67.8784 57.0572C67.2987 57.8344 65.0328 58.0553 63.2126 58.2327C60.8693 58.4611 58.4458 58.6969 56.6462 59.9758C54.8676 61.2391 53.9 63.4006 52.9648 65.4904C52.2255 67.1413 51.306 69.1962 50.3413 69.5021C50.2549 69.5294 50.1575 69.5427 50.0427 69.5427C49.0562 69.5427 47.4337 68.6194 46.002 67.8051C43.9322 66.6276 41.7922 65.41 39.4997 65.41C37.2066 65.41 35.0666 66.6279 32.9968 67.8051C31.5654 68.6194 29.9429 69.5427 28.9567 69.5427C28.8419 69.5427 28.7445 69.5294 28.6581 69.5018C27.6934 69.1962 26.7739 67.1416 26.0346 65.4904C25.0994 63.4003 24.1321 61.2388 22.3532 59.9758C20.553 58.6969 18.1298 58.4608 15.7857 58.2324C13.9655 58.055 11.7004 57.8342 11.1207 57.0572C10.5572 56.3013 11.0348 54.1482 11.4186 52.418C11.9199 50.1592 12.4385 47.8235 11.7437 45.7349C11.0752 43.7249 9.28749 42.1773 7.55873 40.681C6.08929 39.4088 4.42426 37.9672 4.42426 36.9314C4.42426 35.8956 6.08929 34.4537 7.55873 33.1817C9.28719 31.6852 11.0752 30.1373 11.7443 28.1267C12.4385 26.0387 11.9202 23.7033 11.4192 21.4444C11.0348 19.714 10.5572 17.5612 11.1207 16.8053C11.7004 16.028 13.966 15.8072 15.7865 15.6298C18.1298 15.4014 20.5527 15.1656 22.3529 13.887C24.1315 12.6231 25.0991 10.4616 26.0343 8.37153C26.7736 6.72061 27.6931 4.66595 28.6572 4.36013C28.7437 4.33306 28.8416 4.31953 28.9561 4.31953C29.9426 4.31953 31.5651 5.24304 32.9968 6.05742C35.0666 7.23521 37.2066 8.45274 39.4997 8.45274C41.7922 8.45274 43.9322 7.23492 46.002 6.05742C47.434 5.24304 49.0565 4.31953 50.043 4.31953C50.1578 4.31953 50.2552 4.33306 50.341 4.36042C51.3057 4.66595 52.2252 6.72061 52.9645 8.37211C53.9003 10.4625 54.8676 12.624 56.6462 13.8873C58.4458 15.1656 60.869 15.4017 63.2126 15.6301C65.0328 15.8075 67.299 16.0283 67.8784 16.8056C68.4419 17.5615 67.9643 19.7149 67.5799 21.4447C67.0793 23.7036 66.5612 26.0393 67.2554 28.1267C67.9239 30.1373 69.7116 31.6852 71.441 33.1823C72.9098 34.454 74.5749 35.8958 74.5749 36.9317C74.5749 37.9675 72.9095 39.4091 71.441 40.6807C69.7119 42.177 67.9239 43.7249 67.2554 45.7352Z" fill="#222222"/>
<path d="M39.4997 12.4529C25.6723 12.4529 14.4227 23.434 14.4227 36.9314C14.4227 50.4287 25.6723 61.4098 39.4997 61.4098C53.327 61.4098 64.5766 50.4287 64.5766 36.9314C64.5766 23.434 53.3273 12.4529 39.4997 12.4529ZM39.4997 57.0903C28.1117 57.0903 18.8478 48.0472 18.8478 36.9314C18.8478 25.8155 28.1117 16.7724 39.4997 16.7724C50.887 16.7724 60.1515 25.8155 60.1515 36.9314C60.1515 48.0472 50.887 57.0903 39.4997 57.0903Z" fill="#222222"/>
<path d="M39.4996 19.9233C29.8924 19.9233 22.0755 27.5531 22.0755 36.9316C22.0755 38.1247 23.0658 39.0914 24.2881 39.0914C25.5103 39.0914 26.5006 38.1247 26.5006 36.9316C26.5006 29.9351 32.3318 24.2429 39.4996 24.2429C40.7219 24.2429 41.7122 23.2762 41.7122 22.0831C41.7122 20.8901 40.7219 19.9233 39.4996 19.9233Z" fill="#222222"/>
</svg>
